<svg  viewBox="0 0 60 60"  xmlns="http://www.w3.org/2000/svg"><path id="Shape" d="m3 50.62 9.14 2.29c-.2106231 1.0160098-.2578831 2.0591064-.14 3.09 0 2.209139 1.790861 4 4 4h28c2.209139 0 4-1.790861 4-4 .1011369-1.0326447.043808-2.0746824-.17-3.09l9.17-2.29c2.1426558-.5359983 3.4453689-2.7071869 2.91-4.85l-.48-2c-.3807572-1.3482013-1.4390943-2.3989518-2.79-2.77.81-1.63.31-2.76-.17-4.67-.2794886-1.1188946-1.0363354-2.0585546-2.07-2.57 1.23-1.77.65-3.11.13-5.19-.2880126-1.1146348-1.0423134-2.0511338-2.07-2.57.6596594-.9420862.8819029-2.122527.61-3.24-.52-2.07-.64-3.54-2.55-4.52.6596594-.9420862.8819029-2.122527.61-3.24-.49-2-.62-3.39-2.38-4.39-.7464991-.4235461-1.6059569-.6052201-2.46-.52-.8488548-.83960349-1.9541645-1.37113781-3.14-1.51l-3.28-.38-.87-5.36c-.44-2.52-6.47-2.84-9-2.84s-8.56.33-9 2.84l-.88 5.32-3.27.38c-1.1882978.14043297-2.2962979.6715695-3.15 1.51-2.0017211-.24179031-3.87048237 1.0440546-4.36 3-.49 2-1 3.29 0 5 .21.34.26.14-.08.34-1.69 1-1.82 2.43-2.31 4.4-.26866119 1.1052187-.05410525 2.2725484.59 3.21-1.03150254.5166344-1.78971766 1.4534675-2.08 2.57-.52 2.07-1.09 3.42.13 5.19-1.02103436.5122483-1.77434286 1.4365978-2.07 2.54-.47 1.87-1 3.06-.18 4.69-1.34285862.4000668-2.3784806 1.4736236-2.73 2.83l-.49 2c-.50593917 2.1170999.77388166 4.2501346 2.88 4.8zm11 5.38v-2c0-1.1045695.8954305-2 2-2h11v6h-11c-1.1045695 0-2-.8954305-2-2zm8.69-51.08c3.31 1.44 11.31 1.44 14.62 0l.69 4.08c-.14.56-2.89 2-8 2s-7.85-1.4-8-2zm10.31 39.08h9c1.1045695 0 2 .8954305 2 2v2c0 1.1045695-.8954305 2-2 2h-9zm10-6v2c0 1.1045695-.8954305 2-2 2h-8v-6h8c1.1045695 0 2 .8954305 2 2zm-10-4v-6h8c.641906.0006635 1.2444851.3093923 1.62.83.48.63.38 1.07.38 3.17 0 1.1045695-.8954305 2-2 2zm12-12v2c0 1.1045695-.8954305 2-2 2h-10v-6h10c1.1045695 0 2 .8954305 2 2zm-29 26v-2c0-1.1045695.8954305-2 2-2h9v6h-9c-1.1045695 0-2-.8954305-2-2zm11-22h-10c-1.1045695 0-2-.8954305-2-2v-2c0-1.1045695.8954305-2 2-2h10zm-10 6v-2c0-1.1045695.8954305-2 2-2h8v6h-8c-1.1045695 0-2-.8954305-2-2zm10 4v6h-8c-1.1045695 0-2-.8954305-2-2v-2c0-1.1045695.8954305-2 2-2zm2 22v-45h2v45zm17-2c0 1.1045695-.8954305 2-2 2h-11v-6h11c1.1045695 0 2 .8954305 2 2zm11.45-11.69.48 1.94c.1302125.5145328.050565 1.0597232-.2214013 1.5155013-.2719663.455778-.7139457.7847622-1.2285987.9144987l-9.73 2.43c-.4113776-.3908008-.9026916-.6876364-1.44-.87.4524862-.6591028.6931942-1.4405314.69-2.24.0738455-.9540707.0403019-1.913417-.1-2.86l9.1-2.28c.5173352-.1362745 1.0677021-.0596052 1.5280958.2128727.4603936.2724778.7924314.718048.9219042 1.2371273zm-2.45-5.58c.2717935 1.0684431-.3722912 2.155336-1.44 2.43-7 1.79-5.36 1.35-7.81 2-.3664656.0832895-.7494418.0554367-1.1-.08-.1982568-.17329-.4125564-.3273178-.64-.46.6397494-.7226063.9920249-1.6548911.99-2.62.0746271-.9507232.0410789-1.9068454-.1-2.85l7.2-1.81c.5145328-.1302125 1.0597232-.050565 1.5155013.2214013.455778.2719663.7847622.7139457.9144987 1.2285987zm-2-7.75c.2648306 1.0682204-.3831543 2.1496849-1.45 2.42l-7.55 1.93c-.0997641-.1197806-.2102194-.2302359-.33-.33.8520083-.7637468 1.3361527-1.8558018 1.33-3 .1017973-1.0321986.0478614-2.0738355-.16-3.09l5.32-1.33c1.062348-.2731159 2.1464465.3603902 2.43 1.42zm-1.94-7.77c.1302125.5145328.050565 1.0597232-.2214013 1.5155013-.2719663.455778-.7139457.7847622-1.2285987.9144987l-3.62.9c1.21-1.37 1.01-2.54 1.01-4.54-.002199-.6144269-.1459153-1.2200883-.42-1.77l1.64-.41c1.0682204-.2648306 2.1496849.3831543 2.42 1.45zm-2.36-9.69.49 1.93c.1302125.5145328.050565 1.0597232-.2214013 1.5155013-.2719663.455778-.7139457.7847622-1.2285987.9144987l-.27.07c.343613-.5926931.5263195-1.264915.53-1.95.1257671-1.2473741.0275559-2.5071861-.29-3.72.4968058.247001.8591395.7008331.99 1.24zm-3.55-1.8c1.06 1.22.85 2.41.85 4.28 0 1.1045695-.8954305 2-2 2h-11v-5.17c3-.34 5.73-1.21 6.65-2.69l3.26.38c.869745.1080556 1.6681921.5357952 2.24 1.2zm-8.43-8.72c-2.67 1.33-10.72 1.33-13.44 0 2.72-1.33 10.72-1.33 13.44 0zm-19.63 7.52 3.26-.38c.92 1.48 3.62 2.35 6.65 2.69v5.17h-11c-1.1045695 0-2-.8954305-2-2v-2c.002417-1.7742507 1.3284951-3.2676979 3.09-3.48zm-6.28 4.93.48-1.94c.1397907-.5451803.5028205-1.0062282 1-1.27-.38 1.15-.29 1.76-.29 3.76-.0051454.7020393.1778639 1.3926403.53 2l-.27-.07c-.5258143-.1289612-.9768827-.4655846-1.250146-.932959-.2732632-.4673745-.3453731-1.0255663-.199854-1.547041zm-2 7.76.49-1.94c.1297365-.514653.45872069-.9566324.9144987-1.2285987.4557781-.2719663 1.0009685-.3516138 1.5155013-.2214013l1.63.41c-.2497642.5560061-.3727334 1.1606046-.36 1.77 0 1.92-.21 3.17.94 4.55l-3.63-.91c-.51465303-.1297365-.95663237-.4587207-1.22859869-.9144987-.27196631-.4557781-.35161381-1.0009685-.22140131-1.5155013zm-1.89 7.79.48-2c.12754219-.5164998.4556154-.9608989.91164812-1.2348939.45603271-.273995 1.00243934-.3550035 1.51835188-.2251061l5.33 1.34c-.2119731 1.0257752-.2659294 2.0779221-.16 3.12.0065009 1.1520723.5094311 2.245399 1.38 3-.1197806.0997641-.2302359.2102194-.33.33l-7.68-1.93c-1.05710746-.2705035-1.70229455-1.3383994-1.45-2.4zm-1.92 7.74.49-2c.1297365-.514653.45872069-.9566324.91449873-1.2285987s1.00096847-.3516138 1.51550127-.2214013l7.21 1.81c-.0774036.2940831-.1210187.5960337-.13.9 0 1.91-.21 3.2 1 4.58-.2274436.1326822-.4417432.28671-.64.46-.3447422.1303046-.7198213.1580882-1.08.08l-7.82-2c-1.05154263-.2661546-1.6992537-1.3220124-1.46-2.38zm-2.94 7.51.49-1.94c.12947277-.5190793.46151058-.9646495.92190422-1.2371273.46039364-.2724779 1.01076055-.3491472 1.52809578-.2128727l9.12 2.28c-.0701816.2816394-.110405.5699067-.12.86 0 1.87-.17 3 .69 4.24-.5398089.1833559-1.0341876.4799831-1.45.87l-9.73-2.43c-.51465303-.1297365-.95663237-.4587207-1.22859869-.9144987-.27196631-.4557781-.35161381-1.0009685-.22140131-1.5155013z"/></svg>